<?xml version="1.0" encoding="UTF-8"?><svg id="carte-affaire" xmlns="http://www.w3.org/2000/svg" viewBox="0 0 792 288"><defs><style>.cls-1{fill:#231f20;}</style></defs><path class="cls-1" d="M239.29,67.11h8.85l13.49,34.97,13.43-34.97h8.85v42.72h-6.16v-34.79l-13.49,34.79h-5.25l-13.55-34.79v34.79h-6.16v-42.72Z"/><path class="cls-1" d="M307.84,67.11h7.14l17.03,42.72h-7.02l-3.85-10.32h-19.47l-3.85,10.32h-6.96l16.97-42.72ZM319.01,93.59l-7.57-20.02-7.57,20.02h15.14Z"/><path class="cls-1" d="M338.97,67.11h19.84c9.16,0,15.01,5.55,15.01,12.69,0,6.16-4.33,10.99-11.11,12.33l9.16,17.7h-7.51l-8.85-17.27h-9.83v17.27h-6.71v-42.72ZM358.26,86.94c5.55,0,8.85-3.11,8.85-7.14s-3.29-7.02-8.85-7.02h-12.57v14.16h12.57Z"/><path class="cls-1" d="M380.05,95.67v-3.6h6.53v3.48c0,5.43,2.99,9.16,8.06,9.16s8.12-3.48,8.12-8.91v-28.69h6.71v29.05c0,8.55-5.98,14.53-14.77,14.53-9.52,0-14.65-6.96-14.65-15.01Z"/><path class="cls-1" d="M417.23,88.47c0-11.47,8.3-22.22,20.93-22.22s20.94,10.74,20.94,22.22-8.3,22.22-20.94,22.22-20.93-10.74-20.93-22.22ZM452.38,88.47c0-8-5.25-16.3-14.16-16.3s-14.28,8.3-14.28,16.3,5.31,16.3,14.28,16.3,14.16-8.3,14.16-16.3Z"/><path class="cls-1" d="M467.1,67.11h19.84c9.16,0,15.01,5.55,15.01,12.69,0,6.16-4.33,10.99-11.11,12.33l9.16,17.7h-7.51l-8.85-17.27h-9.83v17.27h-6.71v-42.72ZM486.38,86.94c5.55,0,8.85-3.11,8.85-7.14s-3.29-7.02-8.85-7.02h-12.57v14.16h12.57Z"/><path class="cls-1" d="M510.31,67.11h6.71v42.72h-6.71v-42.72Z"/><path class="cls-1" d="M527.28,67.11h30.58v5.92h-23.86v11.96h23.07v5.92h-23.07v13h24.35v5.92h-31.07v-42.72Z"/><path class="cls-1" d="M578.68,95.67v-3.6h6.53v3.48c0,5.43,2.99,9.16,8.06,9.16s8.12-3.48,8.12-8.91v-28.69h6.71v29.05c0,8.55-5.98,14.53-14.77,14.53-9.52,0-14.65-6.96-14.65-15.01Z"/><path class="cls-1" d="M615.85,88.47c0-11.47,8.3-22.22,20.93-22.22s20.93,10.74,20.93,22.22-8.3,22.22-20.93,22.22-20.93-10.74-20.93-22.22ZM651.01,88.47c0-8-5.25-16.3-14.16-16.3s-14.28,8.3-14.28,16.3,5.31,16.3,14.28,16.3,14.16-8.3,14.16-16.3Z"/><path class="cls-1" d="M665.72,67.11h6.71v36.8h22.09v5.92h-28.81v-42.72Z"/><path class="cls-1" d="M702.35,67.11h6.71v42.72h-6.71v-42.72Z"/><path class="cls-1" d="M719.32,67.11h6.35l23.99,32.59v-32.59h6.35v42.72h-6.35l-23.93-32.59v32.59h-6.41v-42.72Z"/><path class="cls-1" d="M237.84,136.55h9.09c8.43,0,13.98,6.18,13.98,13.6s-5.55,13.59-13.98,13.59h-9.09v-27.19ZM246.43,161.06c7.11,0,11.46-4.97,11.46-10.91s-4.35-10.92-11.46-10.92h-5.59v21.83h5.59Z"/><path class="cls-1" d="M266.43,136.55h18.8v2.72h-15.77v9.13h15.23v2.72h-15.23v9.9h16.08v2.72h-19.11v-27.19Z"/><path class="cls-1" d="M291.29,136.55h2.95l16.62,22.96v-22.96h2.87v27.19h-2.95l-16.62-22.96v22.96h-2.87v-27.19Z"/><path class="cls-1" d="M327.81,139.27h-9.21v-2.72h21.44v2.72h-9.21v24.47h-3.03v-24.47Z"/><path class="cls-1" d="M344.82,152.94v-16.39h3.03v16.35c0,5.67,3.15,8.66,7.85,8.66s7.85-2.99,7.85-8.66v-16.35h3.03v16.39c0,6.99-4.35,11.34-10.88,11.34s-10.88-4.35-10.88-11.34Z"/><path class="cls-1" d="M373.49,136.55h12c5.48,0,9.13,3.46,9.13,7.73,0,3.92-2.99,7.03-7.5,7.69l6.21,11.77h-3.26l-6.14-11.65h-7.42v11.65h-3.03v-27.19ZM385.18,149.45c4,0,6.41-2.29,6.41-5.17s-2.41-5.09-6.41-5.09h-8.66v10.25h8.66Z"/><path class="cls-1" d="M398.89,150.15c0-7.07,5.13-14.14,13.09-14.14s13.09,7.07,13.09,14.14-5.13,14.14-13.09,14.14-13.09-7.07-13.09-14.14ZM422.04,150.15c0-5.63-3.85-11.42-10.02-11.42s-10.1,5.79-10.1,11.42,3.92,11.42,10.1,11.42,10.02-5.79,10.02-11.42Z"/><path class="cls-1" d="M430.71,136.55h3.03v24.47h14.76v2.72h-17.79v-27.19Z"/><path class="cls-1" d="M451.02,150.15c0-7.07,5.13-14.14,13.09-14.14s13.09,7.07,13.09,14.14-5.13,14.14-13.09,14.14-13.09-7.07-13.09-14.14ZM474.17,150.15c0-5.63-3.85-11.42-10.02-11.42s-10.1,5.79-10.1,11.42,3.92,11.42,10.1,11.42,10.02-5.79,10.02-11.42Z"/><path class="cls-1" d="M494.41,138.73c-6.1,0-9.9,5.63-9.9,11.42s3.73,11.42,10.02,11.42c5.75,0,8.7-3.92,9.24-8.78h-10.99v-2.72h14.02v1.36c0,6.87-4.58,12.86-12.27,12.86s-13.05-6.72-13.05-14.14,5.32-14.14,12.93-14.14c6.21,0,10.14,3.26,11.65,8.08h-3.15c-1.44-3.3-4.16-5.36-8.51-5.36Z"/><path class="cls-1" d="M512.82,136.55h3.03v27.19h-3.03v-27.19Z"/><path class="cls-1" d="M521.68,155.78h2.95c.82,3.5,3.42,6.02,7.96,6.02s6.99-2.49,6.99-5.79c0-2.6-1.71-4.27-4.97-4.93l-5.98-1.24c-4.04-.86-6.1-2.95-6.1-6.53,0-4.31,3.88-7.3,9.67-7.3s8.97,3.03,9.67,7.81h-2.95c-.66-3.15-2.95-5.32-6.8-5.32s-6.64,1.75-6.64,4.74c0,2.25,1.01,3.5,4.08,4.12l5.98,1.2c4.51.89,6.99,3.42,6.99,7.34,0,4.97-4.27,8.39-9.98,8.39-6.1,0-9.87-3.42-10.88-8.51Z"/><path class="cls-1" d="M554.74,139.27h-9.21v-2.72h21.44v2.72h-9.21v24.47h-3.03v-24.47Z"/><path class="cls-1" d="M571.83,136.55h18.8v2.72h-15.77v9.13h15.23v2.72h-15.23v9.9h16.08v2.72h-19.11v-27.19Z"/><path class="cls-1" d="M73.78,67.2h11.18l25.15,54.85,24.94-54.85h11.38v72.44h-7.24v-64.37l-25.67,55.58h-6.83l-25.67-55.58v64.37h-7.24v-72.44Z"/><path class="cls-1" d="M138.23,154.99c2.31,1.01,4.67,1.49,6.93,1.49,10.35,0,15.94-6.17,15.94-16.83v-72.44h8.07v72.44c0,14.8-9.83,24.08-24.01,24.08-2.19,0-4.73-.42-6.63-.88-1.08-.26-1.94-.52-3.22-1.13l2.92-6.74Z"/><path class="cls-1" d="M157.5,250.74c-.63,0-1.27-.06-1.92-.2-6.29-1.33-9.16-8.74-10.39-11.9-4.6-11.89-6.28-22.64-7.62-31.28-2.32-14.9-3.74-21.55-13.09-23.16-2-.35-4.02-.34-6.02,0-9.35,1.61-10.77,8.26-13.09,23.16-1.34,8.64-3.02,19.4-7.62,31.28-1.22,3.16-4.09,10.57-10.39,11.9-5.08,1.08-9.56-2.47-11.48-3.98-10.31-8.14-12.73-21.65-15.29-35.95-1.07-5.95-1.81-12.05-2.22-18.16-.13-1-1.77-13.83-3.92-26.14-1.52-8.72-2.58-12.54-3.22-14.83-1.58-5.69-2.37-8.54-6.28-17.55-.93-2.13-9.03-21.47-8.95-43.87.07-19.92,6.41-32.09,9.14-36.39,3.22-5.1,7-8.98,11.23-11.55,3.98-2.42,8.85-3.95,14.46-4.57,9.37-1.02,16.49.99,22.21,2.6.87.24,1.7.48,2.51.7h0c16,4.26,35.87,4.26,51.87,0,.81-.22,1.65-.45,2.51-.7,5.72-1.62,12.84-3.63,22.21-2.6,5.61.62,10.47,2.15,14.46,4.57,4.23,2.56,8.01,6.45,11.23,11.55,2.72,4.31,9.07,16.47,9.14,36.39.08,22.4-8.03,41.74-8.95,43.87-3.91,9.01-4.7,11.86-6.28,17.55-.63,2.29-1.69,6.11-3.22,14.83-2.15,12.31-3.79,25.14-3.92,26.14-.41,6.1-1.15,12.21-2.22,18.16-2.56,14.3-4.98,27.81-15.29,35.95-1.67,1.32-5.3,4.18-9.56,4.18ZM121.48,179.47c1.26,0,2.52.11,3.76.32,12.9,2.22,14.6,13.1,16.74,26.87,1.31,8.43,2.94,18.92,7.38,30.36.88,2.27,3.22,8.32,7.15,9.15,3.04.64,6.25-1.9,7.79-3.12,8.99-7.09,11.26-19.8,13.67-33.24,1.04-5.81,1.77-11.77,2.16-17.73h0c.16-1.58,1.92-14.81,3.97-26.55,1.56-8.93,2.66-12.89,3.31-15.26,1.63-5.89,2.45-8.85,6.49-18.14.89-2.04,8.66-20.58,8.59-42.08-.07-18.76-5.93-30.05-8.45-34.03-2.85-4.51-6.14-7.92-9.77-10.12-3.42-2.07-7.67-3.4-12.63-3.95-8.5-.94-14.88.87-20.51,2.46-.89.25-1.74.49-2.58.71-16.7,4.45-37.46,4.45-54.16,0h0c-.83-.22-1.69-.46-2.58-.71-5.63-1.59-12.01-3.4-20.51-2.46-4.96.54-9.21,1.87-12.63,3.95-3.63,2.2-6.92,5.61-9.77,10.12-2.52,3.98-8.38,15.26-8.45,34.03-.08,21.49,7.7,40.03,8.59,42.08,4.03,9.29,4.85,12.25,6.49,18.14.66,2.36,1.75,6.32,3.31,15.26,2.05,11.74,3.81,24.97,3.97,26.55h0c.39,5.96,1.12,11.93,2.16,17.73,2.51,14.03,4.68,26.15,13.67,33.24,1.55,1.22,4.77,3.76,7.79,3.12,3.93-.83,6.27-6.88,7.15-9.15,4.43-11.44,6.06-21.93,7.38-30.36,2.14-13.77,3.84-24.65,16.74-26.87,1.25-.22,2.51-.32,3.76-.32Z"/></svg>