<?xml version="1.0" encoding="UTF-8"?>
<svg id="carte-affaire" xmlns="http://www.w3.org/2000/svg" version="1.1" viewBox="0 0 612 108">
  <!-- Generator: Adobe Illustrator 30.0.0, SVG Export Plug-In . SVG Version: 2.1.1 Build 123)  -->
  <defs>
    <style>
      .st0 {
        fill: #231f20;
      }
    </style>
  </defs>
  <path class="st0" d="M31.42,33.54h17.01c12.22,0,21.04,8.89,21.04,20.46s-8.83,20.46-21.04,20.46h-17.01v-40.92ZM47.14,65.87c7.19,0,12.28-4.85,12.28-11.87s-5.09-11.87-12.28-11.87h-5.73v23.73h5.73Z"/>
  <path class="st0" d="M75.44,33.54h31.16v8.71h-21.1v7.07h20.34v8.71h-20.34v7.72h21.57v8.71h-31.63v-40.92Z"/>
  <path class="st0" d="M113.79,33.54h9.12l19,24.84v-24.84h9.53v40.92h-9.18l-18.94-24.84v24.84h-9.53v-40.92Z"/>
  <path class="st0" d="M169.5,42.25h-12.51v-8.71h35.08v8.71h-12.51v32.21h-10.05v-32.21h0Z"/>
  <path class="st0" d="M197.5,57.62v-24.08h10.05v24.03c0,5.73,2.86,8.94,7.89,8.94s7.89-3.22,7.89-8.94v-24.03h10.05v24.08c0,10.76-6.96,17.65-17.95,17.65s-17.95-6.9-17.95-17.65h.02Z"/>
  <path class="st0" d="M240.88,33.54h20.75c9.76,0,15.67,5.49,15.67,13.15,0,5.9-3.57,10.46-9.41,12.28l7.6,15.49h-11.57l-7.07-14.56h-5.9v14.56h-10.06v-40.92h-.01ZM261.04,51.66c3.86,0,6.2-1.99,6.2-5.03,0-2.81-2.34-4.85-6.2-4.85h-10.11v9.88h10.11Z"/>
  <path class="st0" d="M282.03,54c0-11.75,8.48-21.28,20.75-21.28s20.75,9.53,20.75,21.28-8.48,21.28-20.75,21.28-20.75-9.53-20.75-21.28ZM313.48,54c0-6.02-3.57-12.51-10.7-12.51s-10.7,6.49-10.7,12.51,3.57,12.51,10.7,12.51,10.7-6.49,10.7-12.51Z"/>
  <path class="st0" d="M329.67,33.54h10.06v32.15h19.12v8.77h-29.17v-40.92h-.01Z"/>
  <path class="st0" d="M361.76,54c0-11.75,8.48-21.28,20.75-21.28s20.75,9.53,20.75,21.28-8.48,21.28-20.75,21.28-20.75-9.53-20.75-21.28ZM393.23,54c0-6.02-3.57-12.51-10.7-12.51s-10.7,6.49-10.7,12.51,3.57,12.51,10.7,12.51,10.7-6.49,10.7-12.51Z"/>
  <path class="st0" d="M428.76,41.49c-6.84,0-10.76,6.2-10.76,12.51,0,6.9,3.57,12.86,10.64,12.86,5.49,0,8.36-2.86,9.3-6.31h-10.81v-8.42h21.16v3.86c0,11.46-7.42,19.29-19.64,19.29-13.68,0-20.69-10-20.69-21.28s7.78-21.28,20.58-21.28c10.23,0,17.25,5.26,19.23,14.09h-10.17c-1.23-3.04-4.15-5.32-8.83-5.32h0Z"/>
  <path class="st0" d="M454.95,33.54h10.05v40.92h-10.05v-40.92Z"/>
  <path class="st0" d="M471.32,61.37h9.76c.76,3.57,3.33,6.02,7.89,6.02,4.09,0,6.72-1.81,6.72-4.73,0-2.1-1.34-3.45-4.38-4.03l-8.54-1.69c-6.78-1.34-10.58-4.68-10.58-11.46,0-7.37,6.61-12.74,15.96-12.74s15.72,4.97,16.13,13.15h-9.65c-.53-3.04-2.69-5.26-6.55-5.26s-6.14,1.4-6.14,4.09c0,1.93,1.17,2.81,3.62,3.27l9.3,1.75c6.9,1.29,10.58,5.2,10.58,11.63,0,8.24-6.96,13.91-16.6,13.91s-16.66-5.44-17.54-13.91h.02Z"/>
  <path class="st0" d="M520.85,42.25h-12.51v-8.71h35.08v8.71h-12.51v32.21h-10.05v-32.21h-.01Z"/>
  <path class="st0" d="M548.95,33.54h31.16v8.71h-21.1v7.07h20.34v8.71h-20.34v7.72h21.57v8.71h-31.63v-40.92Z"/>
</svg>