<?xml version="1.0" encoding="UTF-8"?>
<svg id="carte-affaire" xmlns="http://www.w3.org/2000/svg" version="1.1" viewBox="0 0 288 288">
  <!-- Generator: Adobe Illustrator 30.0.0, SVG Export Plug-In . SVG Version: 2.1.1 Build 123)  -->
  <defs>
    <style>
      .st0 {
        fill: #231f20;
      }
    </style>
  </defs>
  <path class="st0" d="M96.3,67.2h11.18l25.15,54.85,24.94-54.85h11.38v72.44h-7.24v-64.37l-25.67,55.58h-6.83l-25.67-55.58v64.37h-7.24v-72.44h0Z"/>
  <path class="st0" d="M160.75,154.99c2.31,1.01,4.67,1.49,6.93,1.49,10.35,0,15.94-6.17,15.94-16.83v-72.44h8.07v72.44c0,14.8-9.83,24.08-24.01,24.08-2.19,0-4.73-.42-6.63-.88-1.08-.26-1.94-.52-3.22-1.13l2.92-6.74h0Z"/>
  <path class="st0" d="M180.02,250.74c-.63,0-1.27-.06-1.92-.2-6.29-1.33-9.16-8.74-10.39-11.9-4.6-11.89-6.28-22.64-7.62-31.28-2.32-14.9-3.74-21.55-13.09-23.16-2-.35-4.02-.34-6.02,0-9.35,1.61-10.77,8.26-13.09,23.16-1.34,8.64-3.02,19.4-7.62,31.28-1.22,3.16-4.09,10.57-10.39,11.9-5.08,1.08-9.56-2.47-11.48-3.98-10.31-8.14-12.73-21.65-15.29-35.95-1.07-5.95-1.81-12.05-2.22-18.16-.13-1-1.77-13.83-3.92-26.14-1.52-8.72-2.58-12.54-3.22-14.83-1.58-5.69-2.37-8.54-6.28-17.55-.93-2.13-9.03-21.47-8.95-43.87.07-19.92,6.41-32.09,9.14-36.39,3.22-5.1,7-8.98,11.23-11.55,3.98-2.42,8.85-3.95,14.46-4.57,9.37-1.02,16.49.99,22.21,2.6.87.24,1.7.48,2.51.7h0c16,4.26,35.87,4.26,51.87,0,.81-.22,1.65-.45,2.51-.7,5.72-1.62,12.84-3.63,22.21-2.6,5.61.62,10.47,2.15,14.46,4.57,4.23,2.56,8.01,6.45,11.23,11.55,2.72,4.31,9.07,16.47,9.14,36.39.08,22.4-8.03,41.74-8.95,43.87-3.91,9.01-4.7,11.86-6.28,17.55-.63,2.29-1.69,6.11-3.22,14.83-2.15,12.31-3.79,25.14-3.92,26.14-.41,6.1-1.15,12.21-2.22,18.16-2.56,14.3-4.98,27.81-15.29,35.95-1.67,1.32-5.3,4.18-9.56,4.18h-.03ZM144,179.47c1.26,0,2.52.11,3.76.32,12.9,2.22,14.6,13.1,16.74,26.87,1.31,8.43,2.94,18.92,7.38,30.36.88,2.27,3.22,8.32,7.15,9.15,3.04.64,6.25-1.9,7.79-3.12,8.99-7.09,11.26-19.8,13.67-33.24,1.04-5.81,1.77-11.77,2.16-17.73h0c.16-1.58,1.92-14.81,3.97-26.55,1.56-8.93,2.66-12.89,3.31-15.26,1.63-5.89,2.45-8.85,6.49-18.14.89-2.04,8.66-20.58,8.59-42.08-.07-18.76-5.93-30.05-8.45-34.03-2.85-4.51-6.14-7.92-9.77-10.12-3.42-2.07-7.67-3.4-12.63-3.95-8.5-.94-14.88.87-20.51,2.46-.89.25-1.74.49-2.58.71-16.7,4.45-37.46,4.45-54.16,0h0c-.83-.22-1.69-.46-2.58-.71-5.63-1.59-12.01-3.4-20.51-2.46-4.96.54-9.21,1.87-12.63,3.95-3.63,2.2-6.92,5.61-9.77,10.12-2.52,3.98-8.38,15.26-8.45,34.03-.08,21.49,7.7,40.03,8.59,42.08,4.03,9.29,4.85,12.25,6.49,18.14.66,2.36,1.75,6.32,3.31,15.26,2.05,11.74,3.81,24.97,3.97,26.55h0c.39,5.96,1.12,11.93,2.16,17.73,2.51,14.03,4.68,26.15,13.67,33.24,1.55,1.22,4.77,3.76,7.79,3.12,3.93-.83,6.27-6.88,7.15-9.15,4.43-11.44,6.06-21.93,7.38-30.36,2.14-13.77,3.84-24.65,16.74-26.87,1.25-.22,2.51-.32,3.76-.32h.02Z"/>
</svg>